<svg width="12" height="12" viewBox="0 0 12 12" fill="none" xmlns="http://www.w3.org/2000/svg">
<path d="M6 0C2.69053 0 0 2.69053 0 6C0 9.30947 2.69053 12 6 12C9.30947 12 12 9.30947 12 6C12 2.69053 9.30947 0 6 0ZM6 10.6989C3.41053 10.6989 1.30105 8.58947 1.30105 6C1.30105 3.41053 3.41053 1.30105 6 1.30105C8.58947 1.30105 10.6989 3.41053 10.6989 6C10.6989 8.58947 8.58947 10.6989 6 10.6989Z" fill="#424242"/>
<path d="M6.00066 5.11584C5.64697 5.11584 5.35645 5.40637 5.35645 5.76005V8.71584C5.35645 9.06953 5.64697 9.36005 6.00066 9.36005C6.35434 9.36005 6.64487 9.06953 6.64487 8.71584V5.76005C6.64487 5.40637 6.35434 5.11584 6.00066 5.11584Z" fill="#424242"/>
<path d="M6.00087 4.44632C6.44037 4.44632 6.79666 4.09003 6.79666 3.65053C6.79666 3.21102 6.44037 2.85474 6.00087 2.85474C5.56137 2.85474 5.20508 3.21102 5.20508 3.65053C5.20508 4.09003 5.56137 4.44632 6.00087 4.44632Z" fill="#424242"/>
</svg>
