<svg width="24" height="24" viewBox="0 0 24 24" fill="none" xmlns="http://www.w3.org/2000/svg">
<path d="M12.0003 12.8334C12.4606 12.8334 12.8337 12.4603 12.8337 12.0001C12.8337 11.5398 12.4606 11.1667 12.0003 11.1667C11.5401 11.1667 11.167 11.5398 11.167 12.0001C11.167 12.4603 11.5401 12.8334 12.0003 12.8334Z" fill="#757575" stroke="#757575" stroke-width="2" stroke-linecap="round" stroke-linejoin="round"/>
<path d="M17.8333 12.8334C18.2936 12.8334 18.6667 12.4603 18.6667 12.0001C18.6667 11.5398 18.2936 11.1667 17.8333 11.1667C17.3731 11.1667 17 11.5398 17 12.0001C17 12.4603 17.3731 12.8334 17.8333 12.8334Z" fill="#757575" stroke="#757575" stroke-width="2" stroke-linecap="round" stroke-linejoin="round"/>
<path d="M6.16634 12.8334C6.62658 12.8334 6.99967 12.4603 6.99967 12.0001C6.99967 11.5398 6.62658 11.1667 6.16634 11.1667C5.7061 11.1667 5.33301 11.5398 5.33301 12.0001C5.33301 12.4603 5.7061 12.8334 6.16634 12.8334Z" fill="#757575" stroke="#757575" stroke-width="2" stroke-linecap="round" stroke-linejoin="round"/>
</svg>
