<svg width="160" height="42" xmlns="http://www.w3.org/2000/svg" xmlns:svg="http://www.w3.org/2000/svg">
 <g class="layer">
  <title>Layer 1</title>
  <path clip-rule="evenodd" d="m55.412001,22c-2.1205,0 -3.9381,-0.69 -5.5708,-1.7167l1.0097,-1.5314c1.6327,1.0433 3.1306,1.5483 4.8134,1.5483c1.9691,0 2.8948,-0.7574 2.8948,-1.6493c0,-2.5584 -8.3308,-1.0267 -8.3308,-5.09961c0,-1.986 1.986,-3.55129 5.1837,-3.55129c2.1543,0 4.0224,0.80788 5.1162,1.902l-1.2452,1.27906c-0.9427,-0.82482 -2.3901,-1.4813 -3.9046,-1.4813c-1.8684,0 -3.1305,0.67342 -3.1305,1.63271c0,2.37313 8.3477,1.11073 8.3477,5.11623c0,2.1208 -2.1374,3.5513 -5.1836,3.5513zm13.3468,-4.8976l0,4.4936l-2.0196,0l0,-4.5106l-5.0491,-6.69808l2.3562,0l3.7867,5.18368l3.5848,-5.18368l2.3227,0l-4.9817,6.71508zm19.0691,4.4937l0,-8.78542l-0.5555,1.19502l-3.9716,7.5904l-1.212,0l-3.9212,-7.5904l-0.5555,-1.19502l0,8.78542l-1.9356,0l0,-11.20907l2.8105,0l3.7701,7.53987l0.5217,1.1446l0.522,-1.1446l3.7192,-7.53987l2.777,0l0,11.20907l-1.9691,0zm12.9542,-7.87656c0,-0.92576 -0.6226,-1.61576 -2.1544,-1.61576l-3.7193,0l0,3.61872l3.8037,0c1.5314,0 2.07,-0.7408 2.07,-1.6497l0,-0.35326zm-2.3732,3.65226l-3.5005,0l0,4.2243l-2.0198,0l0,-11.20903l5.5203,0c3.0632,0 4.4096,1.38 4.4096,3.33247l0,0.30286c0,1.9524 -1.3464,3.3494 -4.4096,3.3494zm15.4137,4.2243l0,-4.8304l-6.7489,0l0,4.8304l-2.0195,0l0,-11.20907l2.0195,0l0,4.74637l6.7489,0l0,-4.74637l2.0195,0l0,11.20907l-2.0195,0zm14.2154,-6.2946c0,-1.91856 -1.33,-3.56785 -3.787,-3.56785c-2.458,0 -3.7701,1.64929 -3.7701,3.56785l0,1.3634c0,1.9186 1.3121,3.6018 3.7701,3.6018c2.457,0 3.787,-1.6832 3.787,-3.6018l0,-1.3634zm-3.787,6.6985c-3.6018,0 -5.8066,-2.5581 -5.8066,-5.3015l0,-1.397c0,-2.79385 2.2048,-5.3015 5.8066,-5.3015c3.618,0 5.823,2.50765 5.823,5.3015l0,1.397c0,2.7434 -2.205,5.3015 -5.823,5.3015zm17.484,-0.4039l-6.278,-7.0857l-0.808,-1.04325l0,8.12895l-2.003,0l0,-11.20907l1.868,0l6.076,7.10257l0.825,1.0433l0,-8.14587l1.986,0l0,11.20907l-1.666,0zm10.655,-4.4937l0,4.4936l-2.02,0l0,-4.5106l-5.049,-6.69808l2.357,0l3.786,5.18368l3.585,-5.18368l2.323,0l-4.982,6.71508z" fill="#ffffff" fill-rule="evenodd" id="svg_1"/>
  <path clip-rule="evenodd" d="m31.961434,17.012637l0,-6.236508c0,-1.277248 -0.691111,-2.47782 -1.802918,-3.132861c-1.664755,-0.981003 -5.27074,-2.625928 -10.71394,-2.625928c-5.443259,0 -9.04914,1.644925 -10.713881,2.625928c-1.111911,0.655041 -1.802948,1.855612 -1.802948,3.132861l0,9.365718l19.81836,5.7368l0,4.17238c0,0.56477 -0.354643,0.96064 -0.957537,1.254847l-6.343994,3.178196l-6.376799,-3.19445c-0.570045,-0.277952 -0.924688,-0.673822 -0.924688,-1.238592l0,-3.129285l-5.215342,-1.564568l0,4.693853c0,2.576928 1.478035,4.769363 3.824933,5.91161l8.691896,4.519044l8.65952,-4.502937c2.379214,-1.158354 3.857338,-3.350789 3.857338,-5.927717l0,-7.82299l-19.818345,-5.736933l0,-4.762137c1.415973,-0.683206 3.830149,-1.496285 7.301487,-1.496285c3.471383,0 5.88547,0.813079 7.301531,1.496285l0,3.719057l5.215327,1.564613z" fill="#0098FF" fill-rule="evenodd" id="svg_2"/>
  <text fill="deepskyblue" font-family="Serif" font-size="7" font-style="italic" id="svg_3" stroke-dasharray="null" stroke-linecap="null" stroke-linejoin="null" stroke-width="0" text-anchor="middle" x="116.467623" xml:space="preserve" y="31.68786">Developer Framework</text>
 </g>
</svg>
