<svg width="17" height="17" viewBox="0 0 17 17" fill="none" xmlns="http://www.w3.org/2000/svg">
<path d="M15.7836 13.8364L12.6675 10.7204C12.5269 10.5797 12.3362 10.5016 12.1362 10.5016H11.6267C12.4894 9.39828 13.0019 8.01057 13.0019 6.50097C13.0019 2.90981 10.0921 0 6.50097 0C2.90981 0 0 2.90981 0 6.50097C0 10.0921 2.90981 13.0019 6.50097 13.0019C8.01057 13.0019 9.39828 12.4894 10.5016 11.6267V12.1362C10.5016 12.3362 10.5797 12.5269 10.7204 12.6675L13.8364 15.7836C14.1302 16.0774 14.6053 16.0774 14.896 15.7836L15.7805 14.8991C16.0743 14.6053 16.0743 14.1302 15.7836 13.8364ZM6.50097 10.5016C4.29127 10.5016 2.50037 8.7138 2.50037 6.50097C2.50037 4.29127 4.28814 2.50037 6.50097 2.50037C8.71068 2.50037 10.5016 4.28814 10.5016 6.50097C10.5016 8.71068 8.7138 10.5016 6.50097 10.5016Z" fill="#BDBDBD"/>
</svg>
