<?xml version="1.0" encoding="utf-8"?>
<!-- Generator: Adobe Illustrator 23.0.2, SVG Export Plug-In . SVG Version: 6.00 Build 0)  -->
<svg version="1.1" id="Camada_1" xmlns="http://www.w3.org/2000/svg" xmlns:xlink="http://www.w3.org/1999/xlink" x="0px" y="0px"
	 viewBox="0 0 1793.37 575.68" style="enable-background:new 0 0 1793.37 575.68;" xml:space="preserve">
<style type="text/css">
	.st0{fill:none;}
	.st1{fill:#F8952D;}
	.st2{fill:#242E64;}
</style>
<g>
	<rect class="st0" width="1793.37" height="575.68"/>
	<g>
		<g>
			<circle class="st1" cx="767.4" cy="164.11" r="31.25"/>
			<g>
				<g>
					<polygon class="st2" points="1083.7,272.6 1083.7,224.84 861.24,224.84 861.24,272.6 941.32,272.6 941.32,447.75 
						1002.94,447.75 1002.94,272.6 					"/>
				</g>
				<g>
					<rect x="736.55" y="226.77" class="st2" width="61.7" height="220.98"/>
				</g>
				<g>
					<polygon class="st2" points="1601.36,226.77 1601.36,336.72 1486.27,265.13 1486.18,265.07 1424.6,226.77 1424.6,226.79 
						1424.58,226.77 1424.58,447.75 1486.27,447.75 1486.27,337.79 1663.06,447.75 1663.06,375.09 1663.06,226.77 					"/>
				</g>
				<g>
					<polygon class="st2" points="541.77,227.09 541.74,227.04 504.67,282.49 504.66,282.51 394.2,447.75 468.45,447.75 
						541.77,338.04 615.09,447.75 689.34,447.75 541.8,227.04 					"/>
				</g>
				<g>
					<polygon class="st2" points="1231.11,227.09 1231.08,227.04 1194.01,282.49 1194,282.51 1083.54,447.75 1157.79,447.75 
						1231.11,338.04 1304.43,447.75 1378.68,447.75 1231.14,227.04 					"/>
				</g>
				<g>
					<g>
						<path class="st2" d="M272.35,227.14l-144.19-0.37v210.96v10.02h139.86c115.7-6.78,110.49-110.49,110.49-110.49
							C372.38,229.78,272.35,227.14,272.35,227.14z M257.99,400.2v0.17h-68.13V276.37h68.13v0.17
							c32.08,2.37,57.37,29.15,57.37,61.83S290.07,397.83,257.99,400.2z"/>
					</g>
				</g>
			</g>
		</g>
	</g>
</g>
</svg>
